# xmcd CD database file
#
# Track frame offsets:
#	150
#	39826
#	62118
#	85443
#	129919
#	171245
#	227138
#
# Disc length: 3549 seconds
#
# Revision: 2
# Processed by: cddbd v1.5.2PL0 Copyright (c) Steve Scherf et al.
# Submitted via: CDex 1.70beta2
#
DISCID=540ddb07
DTITLE=Laboratorium - Anthology 1971-1988 [CD04 - Diver)
DYEAR=2006
DGENRE=Jazz
TTITLE0=Beautiful Driver
TTITLE1=Lower Than Usual
TTITLE2=Diver
TTITLE3=Late-Coming
TTITLE4=Soft Flamenco
TTITLE5=Dziwne Spoznienie
TTITLE6=Prevet Blues
EXTD=YEAR: 2006
EXTT0=
EXTT1=
EXTT2=
EXTT3=
EXTT4=
EXTT5=
EXTT6=
PLAYORDER=
